<mxfile host="app.diagrams.net" modified="2023-09-08T07:45:59.107Z" agent="Mozilla/5.0 (X11; Linux x86_64) AppleWebKit/537.36 (KHTML, like Gecko) Chrome/116.0.0.0 Safari/537.36" etag="M-lD4y9iYJVL9FXAPMN-" version="21.7.2" type="github">
  <diagram name="Page-1" id="u4gkWNF2DicID8pHKwn9">
    <mxGraphModel dx="1222" dy="697" grid="1" gridSize="10" guides="1" tooltips="1" connect="1" arrows="1" fold="1" page="1" pageScale="1" pageWidth="827" pageHeight="1169" math="0" shadow="0">
      <root>
        <mxCell id="0" />
        <mxCell id="1" parent="0" />
        <mxCell id="VCEq4vnMCMdbZMMMOL0R-1" value="Azure Synapse Analytics" style="image;aspect=fixed;html=1;points=[];align=center;fontSize=12;image=img/lib/azure2/databases/Azure_Synapse_Analytics.svg;" vertex="1" parent="1">
          <mxGeometry x="261.13" y="130" width="121.74" height="140" as="geometry" />
        </mxCell>
        <mxCell id="VCEq4vnMCMdbZMMMOL0R-16" style="edgeStyle=orthogonalEdgeStyle;rounded=0;orthogonalLoop=1;jettySize=auto;html=1;entryX=0.002;entryY=0.857;entryDx=0;entryDy=0;entryPerimeter=0;" edge="1" parent="1" source="VCEq4vnMCMdbZMMMOL0R-2" target="VCEq4vnMCMdbZMMMOL0R-1">
          <mxGeometry relative="1" as="geometry" />
        </mxCell>
        <mxCell id="VCEq4vnMCMdbZMMMOL0R-2" value="Azure Data Factory" style="image;aspect=fixed;html=1;points=[];align=center;fontSize=12;image=img/lib/azure2/databases/Data_Factory.svg;" vertex="1" parent="1">
          <mxGeometry x="72" y="260" width="68" height="68" as="geometry" />
        </mxCell>
        <mxCell id="VCEq4vnMCMdbZMMMOL0R-14" style="edgeStyle=orthogonalEdgeStyle;rounded=0;orthogonalLoop=1;jettySize=auto;html=1;" edge="1" parent="1" source="VCEq4vnMCMdbZMMMOL0R-3" target="VCEq4vnMCMdbZMMMOL0R-2">
          <mxGeometry relative="1" as="geometry" />
        </mxCell>
        <mxCell id="VCEq4vnMCMdbZMMMOL0R-17" style="edgeStyle=orthogonalEdgeStyle;rounded=0;orthogonalLoop=1;jettySize=auto;html=1;" edge="1" parent="1" source="VCEq4vnMCMdbZMMMOL0R-3" target="VCEq4vnMCMdbZMMMOL0R-1">
          <mxGeometry relative="1" as="geometry" />
        </mxCell>
        <mxCell id="VCEq4vnMCMdbZMMMOL0R-3" value="Azure Data Lake" style="image;aspect=fixed;html=1;points=[];align=center;fontSize=12;image=img/lib/azure2/storage/Data_Lake_Storage_Gen1.svg;" vertex="1" parent="1">
          <mxGeometry x="170" y="370" width="64" height="52" as="geometry" />
        </mxCell>
        <mxCell id="VCEq4vnMCMdbZMMMOL0R-19" style="edgeStyle=orthogonalEdgeStyle;rounded=0;orthogonalLoop=1;jettySize=auto;html=1;" edge="1" parent="1" source="VCEq4vnMCMdbZMMMOL0R-4">
          <mxGeometry relative="1" as="geometry">
            <mxPoint x="730" y="240" as="targetPoint" />
          </mxGeometry>
        </mxCell>
        <mxCell id="VCEq4vnMCMdbZMMMOL0R-26" style="edgeStyle=orthogonalEdgeStyle;rounded=0;orthogonalLoop=1;jettySize=auto;html=1;" edge="1" parent="1" source="VCEq4vnMCMdbZMMMOL0R-4">
          <mxGeometry relative="1" as="geometry">
            <mxPoint x="50" y="170.0000000000001" as="targetPoint" />
          </mxGeometry>
        </mxCell>
        <mxCell id="VCEq4vnMCMdbZMMMOL0R-4" value="Azure Machine Learning" style="image;aspect=fixed;html=1;points=[];align=center;fontSize=12;image=img/lib/azure2/ai_machine_learning/Machine_Learning.svg;" vertex="1" parent="1">
          <mxGeometry x="140" y="10" width="64" height="68" as="geometry" />
        </mxCell>
        <mxCell id="VCEq4vnMCMdbZMMMOL0R-12" style="edgeStyle=orthogonalEdgeStyle;rounded=0;orthogonalLoop=1;jettySize=auto;html=1;entryX=1.004;entryY=0.286;entryDx=0;entryDy=0;entryPerimeter=0;" edge="1" parent="1" source="VCEq4vnMCMdbZMMMOL0R-5" target="VCEq4vnMCMdbZMMMOL0R-1">
          <mxGeometry relative="1" as="geometry" />
        </mxCell>
        <mxCell id="VCEq4vnMCMdbZMMMOL0R-23" value="Request" style="edgeLabel;html=1;align=center;verticalAlign=middle;resizable=0;points=[];" vertex="1" connectable="0" parent="VCEq4vnMCMdbZMMMOL0R-12">
          <mxGeometry x="-0.3557" y="-2" relative="1" as="geometry">
            <mxPoint as="offset" />
          </mxGeometry>
        </mxCell>
        <mxCell id="VCEq4vnMCMdbZMMMOL0R-5" value="Azure VM" style="image;aspect=fixed;html=1;points=[];align=center;fontSize=12;image=img/lib/azure2/compute/Virtual_Machine.svg;" vertex="1" parent="1">
          <mxGeometry x="610" y="110" width="69" height="64" as="geometry" />
        </mxCell>
        <mxCell id="VCEq4vnMCMdbZMMMOL0R-11" value="Request" style="edgeStyle=orthogonalEdgeStyle;rounded=0;orthogonalLoop=1;jettySize=auto;html=1;" edge="1" parent="1" source="VCEq4vnMCMdbZMMMOL0R-7" target="VCEq4vnMCMdbZMMMOL0R-1">
          <mxGeometry relative="1" as="geometry" />
        </mxCell>
        <mxCell id="VCEq4vnMCMdbZMMMOL0R-7" value="Azure VM" style="image;aspect=fixed;html=1;points=[];align=center;fontSize=12;image=img/lib/azure2/compute/Virtual_Machine.svg;" vertex="1" parent="1">
          <mxGeometry x="610" y="206" width="69" height="64" as="geometry" />
        </mxCell>
        <mxCell id="VCEq4vnMCMdbZMMMOL0R-13" value="Request&amp;nbsp;" style="edgeStyle=orthogonalEdgeStyle;rounded=0;orthogonalLoop=1;jettySize=auto;html=1;entryX=0.933;entryY=1.019;entryDx=0;entryDy=0;entryPerimeter=0;" edge="1" parent="1" source="VCEq4vnMCMdbZMMMOL0R-8" target="VCEq4vnMCMdbZMMMOL0R-1">
          <mxGeometry relative="1" as="geometry" />
        </mxCell>
        <mxCell id="VCEq4vnMCMdbZMMMOL0R-8" value="Azure VM" style="image;aspect=fixed;html=1;points=[];align=center;fontSize=12;image=img/lib/azure2/compute/Virtual_Machine.svg;" vertex="1" parent="1">
          <mxGeometry x="610" y="300" width="69" height="64" as="geometry" />
        </mxCell>
        <mxCell id="VCEq4vnMCMdbZMMMOL0R-22" style="edgeStyle=orthogonalEdgeStyle;rounded=0;orthogonalLoop=1;jettySize=auto;html=1;entryX=0.73;entryY=1.069;entryDx=0;entryDy=0;entryPerimeter=0;" edge="1" parent="1" source="VCEq4vnMCMdbZMMMOL0R-10" target="VCEq4vnMCMdbZMMMOL0R-1">
          <mxGeometry relative="1" as="geometry" />
        </mxCell>
        <mxCell id="VCEq4vnMCMdbZMMMOL0R-10" value="Monitoring" style="image;aspect=fixed;html=1;points=[];align=center;fontSize=12;image=img/lib/azure2/management_governance/Monitor.svg;" vertex="1" parent="1">
          <mxGeometry x="330" y="358" width="64" height="64" as="geometry" />
        </mxCell>
        <mxCell id="VCEq4vnMCMdbZMMMOL0R-21" style="edgeStyle=orthogonalEdgeStyle;rounded=0;orthogonalLoop=1;jettySize=auto;html=1;exitX=0.1;exitY=0.5;exitDx=0;exitDy=0;exitPerimeter=0;" edge="1" parent="1" source="VCEq4vnMCMdbZMMMOL0R-20">
          <mxGeometry relative="1" as="geometry">
            <mxPoint x="730" y="230" as="targetPoint" />
          </mxGeometry>
        </mxCell>
        <mxCell id="VCEq4vnMCMdbZMMMOL0R-20" value="" style="shape=curlyBracket;whiteSpace=wrap;html=1;rounded=1;flipH=1;labelPosition=right;verticalLabelPosition=middle;align=left;verticalAlign=middle;" vertex="1" parent="1">
          <mxGeometry x="690" y="120" width="30" height="250" as="geometry" />
        </mxCell>
        <mxCell id="VCEq4vnMCMdbZMMMOL0R-27" value="&lt;b&gt;&lt;font style=&quot;font-size: 18px;&quot;&gt;POWER BI&lt;/font&gt;&lt;/b&gt;" style="text;strokeColor=none;align=center;fillColor=none;html=1;verticalAlign=middle;whiteSpace=wrap;rounded=0;" vertex="1" parent="1">
          <mxGeometry x="10" y="160" width="100" height="60" as="geometry" />
        </mxCell>
      </root>
    </mxGraphModel>
  </diagram>
</mxfile>
